<mxfile host="app.diagrams.net" modified="2022-02-11T08:21:23.610Z" agent="5.0 (Windows NT 10.0; Win64; x64) AppleWebKit/537.36 (KHTML, like Gecko) Chrome/98.0.4758.82 Safari/537.36" etag="a6yn--zFxZTyHSs9Ro9R" version="15.6.8" type="github">
  <diagram id="XsuQ8nR7xX_qQf-AYgwA" name="第 1 页">
    <mxGraphModel dx="981" dy="526" grid="1" gridSize="5" guides="1" tooltips="1" connect="1" arrows="1" fold="1" page="1" pageScale="1" pageWidth="827" pageHeight="1169" math="0" shadow="0">
      <root>
        <mxCell id="0" />
        <mxCell id="1" parent="0" />
        <mxCell id="WVLH2xlrgRP1fE_CVf-3-1" value="" style="rounded=1;whiteSpace=wrap;html=1;" vertex="1" parent="1">
          <mxGeometry x="375" y="145" width="540" height="320" as="geometry" />
        </mxCell>
        <mxCell id="WVLH2xlrgRP1fE_CVf-3-39" style="edgeStyle=orthogonalEdgeStyle;rounded=0;orthogonalLoop=1;jettySize=auto;html=1;exitX=1;exitY=0.5;exitDx=0;exitDy=0;" edge="1" parent="1" source="WVLH2xlrgRP1fE_CVf-3-2" target="WVLH2xlrgRP1fE_CVf-3-37">
          <mxGeometry relative="1" as="geometry">
            <Array as="points">
              <mxPoint x="745" y="215" />
              <mxPoint x="745" y="195" />
            </Array>
          </mxGeometry>
        </mxCell>
        <mxCell id="WVLH2xlrgRP1fE_CVf-3-2" value="Server" style="rounded=1;whiteSpace=wrap;html=1;fillColor=#dae8fc;strokeColor=#6c8ebf;" vertex="1" parent="1">
          <mxGeometry x="530" y="190" width="190" height="50" as="geometry" />
        </mxCell>
        <mxCell id="WVLH2xlrgRP1fE_CVf-3-9" style="edgeStyle=orthogonalEdgeStyle;rounded=0;orthogonalLoop=1;jettySize=auto;html=1;exitX=0;exitY=0.5;exitDx=0;exitDy=0;entryX=1;entryY=0.5;entryDx=0;entryDy=0;" edge="1" parent="1" source="WVLH2xlrgRP1fE_CVf-3-3" target="WVLH2xlrgRP1fE_CVf-3-8">
          <mxGeometry relative="1" as="geometry" />
        </mxCell>
        <mxCell id="WVLH2xlrgRP1fE_CVf-3-42" style="edgeStyle=orthogonalEdgeStyle;rounded=0;orthogonalLoop=1;jettySize=auto;html=1;exitX=1;exitY=0.5;exitDx=0;exitDy=0;entryX=0;entryY=0.5;entryDx=0;entryDy=0;" edge="1" parent="1" source="WVLH2xlrgRP1fE_CVf-3-3" target="WVLH2xlrgRP1fE_CVf-3-41">
          <mxGeometry relative="1" as="geometry" />
        </mxCell>
        <mxCell id="WVLH2xlrgRP1fE_CVf-3-3" value="raftNode" style="rounded=1;whiteSpace=wrap;html=1;fillColor=#dae8fc;strokeColor=#6c8ebf;" vertex="1" parent="1">
          <mxGeometry x="530" y="290" width="190" height="50" as="geometry" />
        </mxCell>
        <mxCell id="WVLH2xlrgRP1fE_CVf-3-44" style="edgeStyle=orthogonalEdgeStyle;rounded=0;orthogonalLoop=1;jettySize=auto;html=1;exitX=1;exitY=0.5;exitDx=0;exitDy=0;entryX=0;entryY=0.5;entryDx=0;entryDy=0;" edge="1" parent="1" source="WVLH2xlrgRP1fE_CVf-3-4" target="WVLH2xlrgRP1fE_CVf-3-43">
          <mxGeometry relative="1" as="geometry" />
        </mxCell>
        <mxCell id="WVLH2xlrgRP1fE_CVf-3-4" value="Raft" style="rounded=1;whiteSpace=wrap;html=1;fillColor=#ffe6cc;strokeColor=#d79b00;" vertex="1" parent="1">
          <mxGeometry x="530" y="390" width="190" height="40" as="geometry" />
        </mxCell>
        <mxCell id="WVLH2xlrgRP1fE_CVf-3-8" value="raft-http" style="rounded=1;whiteSpace=wrap;html=1;fillColor=#e1d5e7;strokeColor=#9673a6;" vertex="1" parent="1">
          <mxGeometry x="420" y="190" width="50" height="160" as="geometry" />
        </mxCell>
        <mxCell id="WVLH2xlrgRP1fE_CVf-3-12" value="" style="shape=flexArrow;endArrow=classic;html=1;rounded=0;startArrow=none;fillColor=#ffe6cc;strokeColor=#d79b00;" edge="1" parent="1" source="WVLH2xlrgRP1fE_CVf-3-22">
          <mxGeometry width="50" height="50" relative="1" as="geometry">
            <mxPoint x="630" y="390" as="sourcePoint" />
            <mxPoint x="630" y="340" as="targetPoint" />
          </mxGeometry>
        </mxCell>
        <mxCell id="WVLH2xlrgRP1fE_CVf-3-14" value="" style="shape=flexArrow;endArrow=classic;html=1;rounded=0;fillColor=#dae8fc;strokeColor=#6c8ebf;" edge="1" parent="1">
          <mxGeometry width="50" height="50" relative="1" as="geometry">
            <mxPoint x="570" y="290" as="sourcePoint" />
            <mxPoint x="570" y="240" as="targetPoint" />
            <Array as="points">
              <mxPoint x="570" y="260" />
            </Array>
          </mxGeometry>
        </mxCell>
        <mxCell id="WVLH2xlrgRP1fE_CVf-3-16" value="" style="shape=flexArrow;endArrow=classic;html=1;rounded=0;startArrow=none;fillColor=#ffe6cc;strokeColor=#d79b00;" edge="1" parent="1" source="WVLH2xlrgRP1fE_CVf-3-19">
          <mxGeometry width="50" height="50" relative="1" as="geometry">
            <mxPoint x="550" y="340" as="sourcePoint" />
            <mxPoint x="550" y="390" as="targetPoint" />
          </mxGeometry>
        </mxCell>
        <mxCell id="WVLH2xlrgRP1fE_CVf-3-18" value="applyC" style="text;html=1;align=center;verticalAlign=middle;resizable=0;points=[];autosize=1;strokeColor=none;fillColor=none;" vertex="1" parent="1">
          <mxGeometry x="580" y="260" width="50" height="20" as="geometry" />
        </mxCell>
        <mxCell id="WVLH2xlrgRP1fE_CVf-3-19" value="propC" style="text;html=1;align=center;verticalAlign=middle;resizable=0;points=[];autosize=1;strokeColor=none;fillColor=none;" vertex="1" parent="1">
          <mxGeometry x="525" y="350" width="50" height="20" as="geometry" />
        </mxCell>
        <mxCell id="WVLH2xlrgRP1fE_CVf-3-20" value="" style="shape=flexArrow;endArrow=none;html=1;rounded=0;fillColor=#ffe6cc;strokeColor=#d79b00;" edge="1" parent="1" target="WVLH2xlrgRP1fE_CVf-3-19">
          <mxGeometry width="50" height="50" relative="1" as="geometry">
            <mxPoint x="550" y="340" as="sourcePoint" />
            <mxPoint x="550" y="390" as="targetPoint" />
          </mxGeometry>
        </mxCell>
        <mxCell id="WVLH2xlrgRP1fE_CVf-3-23" value="advanceC" style="text;html=1;align=center;verticalAlign=middle;resizable=0;points=[];autosize=1;strokeColor=none;fillColor=none;" vertex="1" parent="1">
          <mxGeometry x="645" y="360" width="70" height="20" as="geometry" />
        </mxCell>
        <mxCell id="WVLH2xlrgRP1fE_CVf-3-29" value="" style="shape=flexArrow;endArrow=classic;html=1;rounded=0;startArrow=none;fillColor=#ffe6cc;strokeColor=#d79b00;" edge="1" parent="1">
          <mxGeometry width="50" height="50" relative="1" as="geometry">
            <mxPoint x="590" y="370" as="sourcePoint" />
            <mxPoint x="590" y="390" as="targetPoint" />
          </mxGeometry>
        </mxCell>
        <mxCell id="WVLH2xlrgRP1fE_CVf-3-30" value="" style="shape=flexArrow;endArrow=none;html=1;rounded=0;fillColor=#ffe6cc;strokeColor=#d79b00;" edge="1" parent="1">
          <mxGeometry width="50" height="50" relative="1" as="geometry">
            <mxPoint x="590" y="340" as="sourcePoint" />
            <mxPoint x="590" y="350" as="targetPoint" />
          </mxGeometry>
        </mxCell>
        <mxCell id="WVLH2xlrgRP1fE_CVf-3-31" value="&amp;nbsp;recvC" style="text;html=1;align=center;verticalAlign=middle;resizable=0;points=[];autosize=1;strokeColor=none;fillColor=none;" vertex="1" parent="1">
          <mxGeometry x="560" y="350" width="50" height="20" as="geometry" />
        </mxCell>
        <mxCell id="WVLH2xlrgRP1fE_CVf-3-22" value="readtC" style="text;html=1;align=center;verticalAlign=middle;resizable=0;points=[];autosize=1;strokeColor=none;fillColor=none;" vertex="1" parent="1">
          <mxGeometry x="605" y="360" width="50" height="20" as="geometry" />
        </mxCell>
        <mxCell id="WVLH2xlrgRP1fE_CVf-3-32" value="" style="shape=flexArrow;endArrow=none;html=1;rounded=0;fillColor=#ffe6cc;strokeColor=#d79b00;" edge="1" parent="1" target="WVLH2xlrgRP1fE_CVf-3-22">
          <mxGeometry width="50" height="50" relative="1" as="geometry">
            <mxPoint x="630" y="390" as="sourcePoint" />
            <mxPoint x="630" y="340" as="targetPoint" />
          </mxGeometry>
        </mxCell>
        <mxCell id="WVLH2xlrgRP1fE_CVf-3-35" value="" style="shape=flexArrow;endArrow=classic;html=1;rounded=0;startArrow=none;fillColor=#ffe6cc;strokeColor=#d79b00;" edge="1" parent="1">
          <mxGeometry width="50" height="50" relative="1" as="geometry">
            <mxPoint x="680" y="360.0000000000001" as="sourcePoint" />
            <mxPoint x="680" y="340" as="targetPoint" />
          </mxGeometry>
        </mxCell>
        <mxCell id="WVLH2xlrgRP1fE_CVf-3-36" value="" style="shape=flexArrow;endArrow=none;html=1;rounded=0;fillColor=#ffe6cc;strokeColor=#d79b00;" edge="1" parent="1">
          <mxGeometry width="50" height="50" relative="1" as="geometry">
            <mxPoint x="680" y="390.0000000000001" as="sourcePoint" />
            <mxPoint x="680" y="380.0000000000001" as="targetPoint" />
          </mxGeometry>
        </mxCell>
        <mxCell id="WVLH2xlrgRP1fE_CVf-3-37" value="mvcc" style="rounded=1;whiteSpace=wrap;html=1;" vertex="1" parent="1">
          <mxGeometry x="770" y="180" width="90" height="30" as="geometry" />
        </mxCell>
        <mxCell id="WVLH2xlrgRP1fE_CVf-3-46" style="edgeStyle=orthogonalEdgeStyle;rounded=0;orthogonalLoop=1;jettySize=auto;html=1;exitX=1;exitY=0.5;exitDx=0;exitDy=0;" edge="1" parent="1" source="WVLH2xlrgRP1fE_CVf-3-38" target="WVLH2xlrgRP1fE_CVf-3-45">
          <mxGeometry relative="1" as="geometry" />
        </mxCell>
        <mxCell id="WVLH2xlrgRP1fE_CVf-3-38" value="backend" style="rounded=1;whiteSpace=wrap;html=1;" vertex="1" parent="1">
          <mxGeometry x="770" y="225" width="90" height="30" as="geometry" />
        </mxCell>
        <mxCell id="WVLH2xlrgRP1fE_CVf-3-40" value="" style="endArrow=classic;html=1;rounded=0;exitX=1;exitY=0.5;exitDx=0;exitDy=0;entryX=0;entryY=0.5;entryDx=0;entryDy=0;" edge="1" parent="1" source="WVLH2xlrgRP1fE_CVf-3-2" target="WVLH2xlrgRP1fE_CVf-3-38">
          <mxGeometry width="50" height="50" relative="1" as="geometry">
            <mxPoint x="725" y="300" as="sourcePoint" />
            <mxPoint x="765" y="245" as="targetPoint" />
            <Array as="points">
              <mxPoint x="745" y="215" />
              <mxPoint x="745" y="240" />
            </Array>
          </mxGeometry>
        </mxCell>
        <mxCell id="WVLH2xlrgRP1fE_CVf-3-41" value="wal&lt;br&gt;Snapshotter" style="rounded=1;whiteSpace=wrap;html=1;" vertex="1" parent="1">
          <mxGeometry x="770" y="295" width="90" height="40" as="geometry" />
        </mxCell>
        <mxCell id="WVLH2xlrgRP1fE_CVf-3-43" value="raftLog" style="rounded=1;whiteSpace=wrap;html=1;" vertex="1" parent="1">
          <mxGeometry x="765" y="395" width="90" height="30" as="geometry" />
        </mxCell>
        <mxCell id="WVLH2xlrgRP1fE_CVf-3-45" value="boltDB" style="shape=cylinder3;whiteSpace=wrap;html=1;boundedLbl=1;backgroundOutline=1;size=15;" vertex="1" parent="1">
          <mxGeometry x="975" y="200" width="60" height="80" as="geometry" />
        </mxCell>
        <mxCell id="WVLH2xlrgRP1fE_CVf-3-47" value="etcd" style="rounded=1;whiteSpace=wrap;html=1;" vertex="1" parent="1">
          <mxGeometry x="195" y="175" width="120" height="60" as="geometry" />
        </mxCell>
        <mxCell id="WVLH2xlrgRP1fE_CVf-3-48" value="etcd" style="rounded=1;whiteSpace=wrap;html=1;" vertex="1" parent="1">
          <mxGeometry x="195" y="300" width="120" height="60" as="geometry" />
        </mxCell>
        <mxCell id="WVLH2xlrgRP1fE_CVf-3-49" value="" style="shape=flexArrow;endArrow=classic;startArrow=classic;html=1;rounded=0;exitX=1;exitY=0.5;exitDx=0;exitDy=0;" edge="1" parent="1" source="WVLH2xlrgRP1fE_CVf-3-48" target="WVLH2xlrgRP1fE_CVf-3-8">
          <mxGeometry width="100" height="100" relative="1" as="geometry">
            <mxPoint x="315" y="380" as="sourcePoint" />
            <mxPoint x="415" y="280" as="targetPoint" />
          </mxGeometry>
        </mxCell>
        <mxCell id="WVLH2xlrgRP1fE_CVf-3-51" value="" style="shape=flexArrow;endArrow=classic;startArrow=classic;html=1;rounded=0;exitX=1;exitY=0.5;exitDx=0;exitDy=0;" edge="1" parent="1" source="WVLH2xlrgRP1fE_CVf-3-47" target="WVLH2xlrgRP1fE_CVf-3-8">
          <mxGeometry width="100" height="100" relative="1" as="geometry">
            <mxPoint x="315" y="205" as="sourcePoint" />
            <mxPoint x="405" y="240" as="targetPoint" />
          </mxGeometry>
        </mxCell>
      </root>
    </mxGraphModel>
  </diagram>
</mxfile>
